<svg width="394" height="84" fill="none" xmlns="http://www.w3.org/2000/svg"><circle cx="200" cy="33" r="33" fill="#FE0000"/><path d="M223.039 34.56c.374 0 .655.156.842.468.249.249.343.56.28.935l-.561 2.245c-.187.56-.561.841-1.122.841h-1.871c1.372 1.185 2.058 2.681 2.058 4.49v4.49c0 1.496-.499 2.805-1.497 3.927v5.051c0 .81-.312 1.528-.935 2.151-.561.561-1.247.842-2.058.842h-2.993c-.81 0-1.527-.28-2.151-.842-.561-.623-.842-1.34-.842-2.151v-2.993h-23.943v2.993c0 .81-.312 1.528-.936 2.151-.561.561-1.247.842-2.057.842h-2.993c-.811 0-1.528-.28-2.151-.842-.562-.623-.842-1.34-.842-2.151v-5.05c-.998-1.123-1.497-2.432-1.497-3.929v-4.49c0-1.807.686-3.304 2.058-4.489h-1.871c-.561 0-.935-.28-1.122-.841l-.561-2.245c-.062-.374 0-.686.187-.935.249-.312.561-.468.935-.468h5.612l1.59-3.928c.374-.936.873-1.809 1.497-2.62.685-.872 1.434-1.59 2.244-2.15a11.53 11.53 0 0 1 2.806-1.31 10.295 10.295 0 0 1 3.087-.467h11.971c2.12 0 4.053.592 5.799 1.777 1.809 1.184 3.087 2.774 3.835 4.77l1.59 3.928h5.612zm-32.923-1.684l-1.87 4.677h23.943l-1.87-4.677c-.312-.81-.873-1.465-1.684-1.964-.748-.56-1.559-.841-2.432-.841h-11.971c-.873 0-1.715.28-2.526.841a4.078 4.078 0 0 0-1.59 1.964zm-4.863 15.152h2.432c.374-.062.654-.124.841-.187l.562-.187c.249-.125.405-.28.467-.468a1.15 1.15 0 0 0 .187-.654c0-.936-.53-1.902-1.59-2.9-1.06-1.06-2.026-1.59-2.899-1.59-.873 0-1.59.28-2.151.842-.562.561-.842 1.278-.842 2.151 0 .873.28 1.59.842 2.151.561.562 1.278.842 2.151.842zm29.929 0c.873 0 1.59-.28 2.151-.842.562-.56.842-1.278.842-2.15 0-.874-.28-1.59-.842-2.152-.561-.561-1.278-.842-2.151-.842-.561 0-1.216.25-1.964.748a7.277 7.277 0 0 0-1.777 1.871c-.499.686-.748 1.31-.748 1.87 0 .25.031.468.093.655.125.188.281.343.468.468.249.062.468.125.655.187.187.063.436.125.748.187h2.525z" fill="#fff"/><path d="M11.328 31.68H.192V26.4h28.512v5.28H17.568V60h-6.24V31.68zM53.451 60l-6.864-9.84c-.288.032-.72.048-1.296.048h-7.584V60h-6.24V26.4h13.824c2.912 0 5.44.48 7.584 1.44 2.176.96 3.84 2.336 4.992 4.128 1.152 1.792 1.728 3.92 1.728 6.384 0 2.528-.624 4.704-1.872 6.528-1.216 1.824-2.976 3.184-5.28 4.08L60.171 60h-6.72zm-.144-21.648c0-2.144-.704-3.792-2.112-4.944-1.408-1.152-3.472-1.728-6.192-1.728h-7.296v13.392h7.296c2.72 0 4.784-.576 6.192-1.728 1.408-1.184 2.112-2.848 2.112-4.992zm33.141 13.872h-16.8L66.336 60h-6.432l15.12-33.6h6.144L96.336 60h-6.528l-3.36-7.776zm-2.064-4.896L78.048 32.64 71.76 47.328h12.624zM98.69 26.4h14.688c3.584 0 6.768.704 9.552 2.112 2.785 1.376 4.944 3.344 6.48 5.904 1.537 2.528 2.305 5.456 2.305 8.784 0 3.328-.768 6.272-2.305 8.832-1.536 2.528-3.695 4.496-6.48 5.904-2.784 1.376-5.968 2.064-9.552 2.064H98.689V26.4zm14.4 28.32c2.464 0 4.624-.464 6.48-1.392 1.888-.96 3.328-2.304 4.32-4.032 1.024-1.76 1.536-3.792 1.536-6.096 0-2.304-.512-4.32-1.536-6.048-.992-1.76-2.432-3.104-4.32-4.032-1.856-.96-4.016-1.44-6.48-1.44h-8.16v23.04h8.16zm48.537.048V60h-25.2V26.4h24.528v5.232h-18.288v8.736h16.224v5.136h-16.224v9.264h18.96zM252.928 60.48c-2.592 0-5.104-.368-7.536-1.104-2.4-.736-4.304-1.712-5.712-2.928l2.16-4.848c1.376 1.088 3.056 1.984 5.04 2.688 2.016.672 4.032 1.008 6.048 1.008 2.496 0 4.352-.4 5.568-1.2 1.248-.8 1.872-1.856 1.872-3.168 0-.96-.352-1.744-1.056-2.352-.672-.64-1.536-1.136-2.592-1.488-1.056-.352-2.496-.752-4.32-1.2-2.56-.608-4.64-1.216-6.24-1.824a10.565 10.565 0 0 1-4.08-2.832c-1.12-1.312-1.68-3.072-1.68-5.28 0-1.856.496-3.536 1.488-5.04 1.024-1.536 2.544-2.752 4.56-3.648 2.048-.896 4.544-1.344 7.488-1.344 2.048 0 4.064.256 6.048.768s3.696 1.248 5.136 2.208l-1.968 4.848a19.415 19.415 0 0 0-4.608-1.968c-1.6-.448-3.152-.672-4.656-.672-2.464 0-4.304.416-5.52 1.248-1.184.832-1.776 1.936-1.776 3.312 0 .96.336 1.744 1.008 2.352.704.608 1.584 1.088 2.64 1.44 1.056.352 2.496.752 4.32 1.2 2.496.576 4.544 1.184 6.144 1.824 1.6.608 2.96 1.552 4.08 2.832 1.152 1.28 1.728 3.008 1.728 5.184 0 1.856-.512 3.536-1.536 5.04-.992 1.504-2.512 2.704-4.56 3.6-2.048.896-4.544 1.344-7.488 1.344zm52.556-.48l-.048-22.272-11.04 18.432h-2.785l-11.04-18.144V60h-5.952V26.4h5.136l13.344 22.272L306.203 26.4h5.136l.048 33.6h-5.903zm28.467-14.064l-5.328 5.472V60h-6.24V26.4h6.24v17.232L345.231 26.4h7.008l-14.112 15.024L353.103 60h-7.296l-11.856-14.064zM389.128 26.4V60h-6.24V45.6h-17.376V60h-6.24V26.4h6.24v13.872h17.376V26.4h6.24z" fill="#171717"/></svg>